<svg xmlns="http://www.w3.org/2000/svg" width="16" height="16" viewBox="0 0 16 16"><path fill="currentColor" d="M8 0a8 8 0 100 16A8 8 0 008 0zM5.78 8.58a6.8 6.8 0 010-.63l1.34-1.34c.08.2.16.41.24.63.23.66.47 1.36.78 1.76.55.7 1.47 1.25 2.53 1.3a6.8 6.8 0 01-4.9-1.72zm4.98-2.14A7.1 7.1 0 008.9 5.5c-.54-.7-1.46-1.25-2.53-1.3a6.8 6.8 0 014.4 2.23zm2.52 1.16c-.38-.18-.8-.28-1.24-.28-.8 0-1.54.3-2.11.82-.19.17-.36.36-.52.57-.31.39-.56 1.1-.82 1.81a7.48 7.48 0 004.69-3.32zm-2.4 4.84c.36.07.74.1 1.13.1a7.02 7.02 0 01-4.43 2.12c.9-.34 1.61-1.03 2.13-1.91.29-.5.54-1.03.68-1.57.32-.13.74-.22 1.22-.22.17 0 .34 0 .5.02zm-6.6-2.88a6.9 6.9 0 01-.36-1.72c0-.84.19-1.65.52-2.38.25.15.49.3.71.47.59.47 1.09 1.12 1.36 1.92.04.13.08.27.11.41-.27.4-.54.81-.81 1.21-.23.35-.44.67-.59.9-.1.15-.2.3-.3.43-.18.27-.3.45-.36.54-.19.28-.34.48-.46.63zm3.52 3.26a7.02 7.02 0 01-3.66-1.27c.09-.18.2-.4.33-.65.08-.15.17-.31.27-.49.1-.17.21-.35.33-.54.15-.26.37-.58.6-.94.2-.3.42-.62.65-1 .06-.1.12-.2.17-.3.3.1.62.14.95.14.8 0 1.54-.3 2.11-.82.19-.17.36-.36.52-.57.31-.39.56-1.1.82-1.81a7.02 7.02 0 011.67 4.53c0 .76-.13 1.5-.36 2.2-.67-.08-1.29-.34-1.8-.73-.6-.48-1.1-1.15-1.37-1.99a2.98 2.98 0 00-.11-.35c-.04-.13-.1-.26-.16-.38-.13-.26-.28-.5-.45-.72-.2-.25-.43-.47-.68-.65-.18-.13-.37-.24-.57-.32z"/></svg>
