<svg width="320" height="92" viewBox="0 0 320 92" fill="none" xmlns="http://www.w3.org/2000/svg">
  <defs>
    <linearGradient id="bg" x1="12" y1="12" x2="168" y2="80" gradientUnits="userSpaceOnUse">
      <stop offset="0" stop-color="#FF3A3A"/>
      <stop offset="1" stop-color="#C40000"/>
    </linearGradient>
    <linearGradient id="lens" x1="190" y1="12" x2="255" y2="76" gradientUnits="userSpaceOnUse">
      <stop offset="0" stop-color="#D9F3FF"/>
      <stop offset="1" stop-color="#7ACDFF"/>
    </linearGradient>
    <linearGradient id="handle" x1="238" y1="62" x2="308" y2="90" gradientUnits="userSpaceOnUse">
      <stop offset="0" stop-color="#1B1B1B"/>
      <stop offset="1" stop-color="#000000"/>
    </linearGradient>
  </defs>
  <rect x="8" y="10" width="190" height="72" rx="22" fill="url(#bg)"/>
  <path d="M86 30.5C86 27.6 89.2 25.9 91.6 27.5L131.6 52.5C133.8 53.8 133.8 57 131.6 58.3L91.6 83.3C89.2 84.9 86 83.2 86 80.3V30.5Z" fill="white"/>
  <circle cx="220" cy="44" r="28" fill="url(#lens)" stroke="#101828" stroke-width="5"/>
  <path d="M209 33.8C209 31.7 211.3 30.5 213.1 31.6L229.2 41.3C230.9 42.3 230.9 44.8 229.2 45.8L213.1 55.5C211.3 56.6 209 55.4 209 53.3V33.8Z" fill="#E60012"/>
  <rect x="245" y="64" width="66" height="18" rx="9" transform="rotate(35 245 64)" fill="url(#handle)" stroke="#222" stroke-width="3"/>
  <circle cx="220" cy="44" r="33" stroke="#D0D5DD" stroke-opacity="0.8" stroke-width="2"/>
</svg>
